<svg xmlns="http://www.w3.org/2000/svg" viewBox="0 0 24 24" fill="currentColor">
  <path d="M11.64 5.94c-1.46 0-2.88.37-4.14 1.1-.96.55-1.78 1.28-2.42 2.14-.64.86-1.12 1.83-1.42 2.89-.3.94-.4 1.96-.34 3.01.07 1.05.27 2.06.59 3.02.32.96.76 1.84 1.32 2.62.56.78 1.23 1.47 2 2.05.77.58 1.63 1.05 2.54 1.39.9.34 1.85.5 2.81.45 1.03-.04 2.04-.26 2.97-.66.93-.4 1.78-.96 2.52-1.68.75-.72 1.4-1.57 1.93-2.54.52-.97.94-2.03 1.25-3.18.31-1.14.51-2.34.59-3.57.08-1.23.05-2.43-.09-3.64-.13-1.21-.39-2.39-.78-3.52-.38-1.13-.9-2.21-1.53-3.21-.63-1.01-1.37-1.92-2.22-2.73-.85-.81-1.79-1.51-2.82-2.07C13.88 5.61 12.76 5.4 11.64 5.4zM8.5 13.5c-.83 0-1.5-.67-1.5-1.5s.67-1.5 1.5-1.5 1.5.67 1.5 1.5-.67 1.5-1.5 1.5zM15.5 13.5c-.83 0-1.5-.67-1.5-1.5s.67-1.5 1.5-1.5 1.5.67 1.5 1.5-.67 1.5-1.5 1.5z"/>
  <circle cx="11.64" cy="11.94" r="1.5" style="opacity: 0"/>
</svg>
